Coordinates
version=1
nRows=13
nColumns=40
inDegrees=yes

Units are S.I. units (second, meters, Newtons, ...)
Angles are in degrees.

endheader
time	pelvis_tilt	pelvis_list	pelvis_rotation	pelvis_tx	pelvis_ty	pelvis_tz	hip_flexion_r	hip_adduction_r	hip_rotation_r	knee_angle_r	knee_angle_r_beta	ankle_angle_r	subtalar_angle_r	mtp_angle_r	hip_flexion_l	hip_adduction_l	hip_rotation_l	knee_angle_l	knee_angle_l_beta	ankle_angle_l	subtalar_angle_l	mtp_angle_l	lumbar_extension	lumbar_bending	lumbar_rotation	arm_flex_r	arm_add_r	arm_rot_r	elbow_flex_r	pro_sup_r	wrist_flex_r	wrist_dev_r	arm_flex_l	arm_add_l	arm_rot_l	elbow_flex_l	pro_sup_l	wrist_flex_l	wrist_dev_l
      9.75250000	     -5.86934672	     -5.79404298	      2.05296294	      0.98157629	      0.91372909	      0.48208674	     26.29033678	      0.78517898	    -15.48711961	     21.73939527	     21.73939527	      3.42555706	     -1.82273707	     -4.32746834	     10.69057284	    -12.31265766	     -4.20266368	     45.45578295	     45.45578295	     12.48933070	    -16.33138259	     -5.72195906	    -12.61956942	      6.35989795	      2.38993992	    -12.71881115	    -12.29176233	     -6.01353463	     30.43212434	     46.33990893	      0.00000000	      0.00000000	     13.26796555	    -15.93726427	     -3.86722101	    108.36875943	     48.17078673	      0.00000000	      0.00000000
      9.76371429	     -5.91904500	     -6.02234999	      2.50750647	      0.98147141	      0.91526213	      0.48397560	     25.41574399	      1.00839237	    -16.35803054	     21.12051330	     21.12051330	      3.96936270	     -0.88109201	     -4.35368740	     13.02697148	    -12.84832779	     -3.32213144	     49.37366911	     49.37366911	     10.74308467	    -17.35945424	     -4.83502712	    -12.61248007	      6.60847988	      2.29161439	    -11.19029575	    -12.32537904	     -5.72400975	     30.77779417	     46.31607083	      0.00000000	      0.00000000	     11.71575752	    -15.57493767	     -3.65100772	    106.83737972	     48.12509864	      0.00000000	      0.00000000
      9.77492857	     -5.92918902	     -6.27570433	      2.91598421	      0.98128678	      0.91678777	      0.48582152	     24.49564799	      1.29132137	    -17.25038124	     20.46853924	     20.46853924	      4.41171924	      0.09551466	     -4.39889922	     15.36246201	    -13.40287577	     -2.56675937	     53.12770658	     53.12770658	      9.38397403	    -17.96973145	     -3.54999920	    -12.64250670	      6.87958675	      2.26511554	     -9.53951845	    -12.41264727	     -5.43992629	     31.18568938	     46.29146219	      0.00000000	      0.00000000	     10.21851121	    -15.10227638	     -3.34727753	    105.07737403	     48.06900320	      0.00000000	      0.00000000
      9.78614286	     -6.05233929	     -6.47537285	      3.36522434	      0.98097657	      0.91815748	      0.48727824	     23.55702274	      1.49538018	    -18.31669854	     19.54994077	     19.54994077	      4.85001346	      1.50059098	     -4.44567820	     17.89961992	    -13.74080233	     -1.70820911	     56.73579770	     56.73579770	      8.82109473	    -18.22552680	     -1.04192283	    -12.49616500	      7.18297201	      2.12103338	     -7.88452375	    -12.57588063	     -4.95752615	     31.46392424	     46.25802620	      0.00000000	      0.00000000	      8.79975955	    -14.80981594	     -3.24478108	    102.39455505	     48.01183644	      0.00000000	      0.00000000
      9.79735714	     -6.02021399	     -6.45846523	      3.63588511	      0.98049320	      0.91974498	      0.48863444	     22.66345666	      1.47934590	    -19.21197616	     19.03964343	     19.03964343	      5.30453860	      2.95158560	     -4.40538348	     20.35045419	    -13.61512238	     -0.80631437	     60.40842006	     60.40842006	     10.82208757	    -17.85725227	      7.72513002	    -12.56359985	      7.16778858	      2.55488392	     -5.98757076	    -12.99654714	     -2.80573156	     31.09183830	     46.13177622	      0.00000000	      0.00000000	      8.02852686	    -13.85437214	     -2.97126120	     99.02300263	     47.97634050	      0.00000000	      0.00000000
      9.80857143	     -5.99396200	     -6.62897710	      3.94667482	      0.98009808	      0.92116860	      0.49009666	     21.66119373	      1.80623134	    -19.80751883	     18.21556540	     18.21556540	      5.54840807	      3.75704926	     -4.43343159	     22.54314858	    -13.90971331	     -0.25146630	     63.14039293	     63.14039293	     10.21415660	    -18.06531636	      8.53072269	    -12.64345349	      7.36455343	      2.51828144	     -4.22658614	    -13.28784596	     -2.46384773	     31.70576519	     46.09474662	      0.00000000	      0.00000000	      6.68005919	    -13.47180987	     -2.67751575	     96.34076399	     47.91573243	      0.00000000	      0.00000000
      9.81978571	     -6.07771017	     -6.81065916	      4.20811120	      0.97948619	      0.92220610	      0.49150597	     20.88152148	      2.16375776	    -20.19974444	     17.52263447	     17.52263447	      5.80060493	      4.21976017	     -4.44629900	     24.83112473	    -14.14799737	      0.30562586	     65.52987049	     65.52987049	      9.75902115	    -18.21609183	      8.72671411	    -12.60837706	      7.53269055	      2.77591768	     -2.52698583	    -13.56647905	     -2.40131286	     32.26958936	     46.08036855	      0.00000000	      0.00000000	      5.30011891	    -13.02509862	     -2.25353729	     94.26588277	     47.84543232	      0.00000000	      0.00000000
      9.83100000	     -6.07910700	     -6.91987942	      4.46086235	      0.97885824	      0.92342519	      0.49273333	     19.94314011	      2.46548273	    -20.59852062	     16.69689090	     16.69689090	      5.95942929	      4.87276240	     -4.48765591	     26.94690159	    -14.23061402	      0.84124371	     67.49540616	     67.49540616	      9.58292268	    -18.25069041	      9.19965823	    -12.61853589	      7.65279471	      2.87372168	     -0.58722348	    -13.82678267	     -2.24790296	     32.71140092	     46.06654145	      0.00000000	      0.00000000	      4.26578289	    -12.65231668	     -2.04828469	     90.65621988	     47.76567461	      0.00000000	      0.00000000
      9.84221429	     -6.00598794	     -6.89215218	      4.64863284	      0.97819809	      0.92470812	      0.49378008	     19.01402525	      2.63301573	    -20.81197352	     16.04249295	     16.04249295	      6.14510186	      5.33919053	     -4.67252095	     28.83677192	    -14.12868937	      1.23390997	     69.01090422	     69.01090422	      9.67898936	    -18.21713029	      9.91988943	    -12.73112890	      7.65600261	      3.43735172	      1.29816560	    -14.22411299	     -1.97204801	     32.69806957	     46.06211074	      0.00000000	      0.00000000	      3.83834767	    -11.78050623	     -1.88562632	     86.07536346	     47.68241918	      0.00000000	      0.00000000
      9.85342857	     -6.03683932	     -6.95491543	      4.85974988	      0.97729547	      0.92556715	      0.49479867	     18.28088017	      2.89093030	    -20.90910106	     15.47940407	     15.47940407	      6.34002165	      5.48698930	     -4.72268603	     30.85429130	    -14.04757688	      1.72993411	     70.18481696	     70.18481696	      9.64175678	    -18.15045446	      9.93574493	    -12.76738760	      7.69135523	      3.62218807	      3.27300261	    -14.53446186	     -1.99423131	     33.22563199	     46.05642916	      0.00000000	      0.00000000	      2.66619263	    -11.50156187	     -1.55699172	     83.14323774	     47.60889044	      0.00000000	      0.00000000
      9.86464286	     -6.00114511	     -6.96810496	      5.06079742	      0.97642049	      0.92643090	      0.49567082	     17.50550072	      3.09987399	    -20.93470384	     14.97967720	     14.97967720	      6.57384975	      5.52217711	     -4.78124207	     32.66524298	    -13.88726569	      2.15940146	     70.90484244	     70.90484244	      9.61855097	    -18.09245781	      9.85601196	    -12.84113406	      7.68436896	      3.73877110	      5.36856039	    -14.84469499	     -2.04262033	     33.80254749	     46.05147878	      0.00000000	      0.00000000	      1.50315580	    -11.14879363	     -1.33573265	     79.92804083	     47.53497885	      0.00000000	      0.00000000
      9.87585714	     -5.93336660	     -6.87000483	      5.21239422	      0.97544550	      0.92736338	      0.49641042	     16.71109690	      3.21853039	    -20.73194007	     14.49436875	     14.49436875	      6.73928363	      5.37082845	     -5.02784778	     34.27158636	    -13.57966869	      2.48277100	     71.14743734	     71.14743734	      9.56752800	    -18.02673901	      9.78752130	    -12.95473371	      7.56048105	      4.43048139	      7.39929521	    -15.29605591	     -1.95213599	     33.65371227	     46.06376814	      0.00000000	      0.00000000	      1.57713764	    -10.19604933	     -1.65215319	     74.28152110	     47.47305311	      0.00000000	      0.00000000
      9.88707143	     -5.90916493	     -6.82840215	      5.42150194	      0.97434707	      0.92794891	      0.49700783	     16.02966555	      3.34772720	    -20.63837919	     14.11972304	     14.11972304	      6.99889622	      5.21294846	     -5.09898653	     35.89631936	    -13.24686959	      2.89418387	     71.06243641	     71.06243641	      9.46086807	    -17.98742397	      9.70364837	    -13.06977946	      7.47547911	      4.29942003	      9.68894203	    -15.49218395	     -2.08039971	     34.56627528	     46.05041293	      0.00000000	      0.00000000	      0.25539366	    -10.18652498	     -1.47699733	     71.37980647	     47.40756893	      0.00000000	      0.00000000
